<?xml version="1.0" encoding="UTF-8"?>
<!DOCTYPE svg PUBLIC "-//W3C//DTD SVG 1.1//EN" "http://www.w3.org/Graphics/SVG/1.1/DTD/svg11.dtd">
<!-- Creator: CorelDRAW -->
<svg xmlns="http://www.w3.org/2000/svg" xml:space="preserve" width="64px" height="80px" version="1.1" style="shape-rendering:geometricPrecision; text-rendering:geometricPrecision; image-rendering:optimizeQuality; fill-rule:evenodd; clip-rule:evenodd"
viewBox="0 0 1707 1707"
 xmlns:xlink="http://www.w3.org/1999/xlink">
 <defs>
  <style type="text/css">
   <![CDATA[
    .str0 {stroke:black;stroke-width:46.6654;stroke-linecap:round;stroke-linejoin:round}
    .fil0 {fill:none}
   ]]>
  </style>
 </defs>
 <g id="Layer_x0020_1">
  <metadata id="CorelCorpID_0Corel-Layer"/>
  <g id="_590634208">
   <rect class="fil0 str0" x="24" y="120" width="1658" height="983" rx="174" ry="103"/>
   <line class="fil0 str0" x1="24" y1="955" x2="1683" y2= "955" />
   <rect class="fil0 str0" x="308" y="1457" width="1092" height="129"/>
   <path class="fil0 str0" d="M987 1283c0,-72 32,-136 82,-180l-431 0c50,44 82,108 82,180 0,69 -29,131 -76,174l418 0c-46,-43 -75,-105 -75,-174z"/>
   <g>
    <g>
     <line class="fil0 str0" x1="1328" y1="409" x2="1393" y2= "409" />
     <line class="fil0 str0" x1="1328" y1="579" x2="1393" y2= "579" />
     <line class="fil0 str0" x1="1280" y1="666" x2="1312" y2= "723" />
     <line class="fil0 str0" x1="1138" y1="749" x2="1138" y2= "814" />
     <line class="fil0 str0" x1="1039" y1="749" x2="1039" y2= "814" />
     <line class="fil0 str0" x1="1002" y1="356" x2="1035" y2= "413" />
     <line class="fil0 str0" x1="1280" y1="260" x2="1280" y2= "325" />
     <line class="fil0 str0" x1="1181" y1="260" x2="1181" y2= "325" />
     <polygon class="fil0 str0" points="1181,496 1280,496 1328,579 1280,666 1181,666 1138,579 "/>
     <polygon class="fil0 str0" points="1035,413 1133,413 1181,496 1138,579 1039,579 991,496 "/>
     <polygon class="fil0 str0" points="1039,579 1138,579 1181,666 1138,749 1039,749 996,662 "/>
     <polygon class="fil0 str0" points="1181,325 1280,325 1328,409 1280,496 1181,496 1133,413 "/>
     <line class="fil0 str0" x1="926" y1="496" x2="991" y2= "496" />
     <line class="fil0 str0" x1="926" y1="662" x2="991" y2= "662" />
    </g>
    <g>
     <line class="fil0 str0" x1="314" y1="320" x2="797" y2= "320" />
     <line class="fil0 str0" x1="314" y1="465" x2="797" y2= "465" />
     <line class="fil0 str0" x1="314" y1="610" x2="797" y2= "610" />
     <line class="fil0 str0" x1="314" y1="755" x2="797" y2= "755" />
    </g>
   </g>
  </g>
 </g>
</svg>
