<?xml version="1.0" encoding="UTF-8"?>
<!DOCTYPE svg PUBLIC "-//W3C//DTD SVG 1.1//EN" "http://www.w3.org/Graphics/SVG/1.1/DTD/svg11.dtd">
<!-- Creator: CorelDRAW -->
<svg xmlns="http://www.w3.org/2000/svg" xml:space="preserve" width="70px" height="75px" version="1.1" style="shape-rendering:geometricPrecision; text-rendering:geometricPrecision; image-rendering:optimizeQuality; fill-rule:evenodd; clip-rule:evenodd"
viewBox="0 0 512 512"
 xmlns:xlink="http://www.w3.org/1999/xlink">
 <defs>
  <style type="text/css">
   <![CDATA[
    .fil0 {fill:black}
   ]]>
  </style>
 </defs>
 <g id="Layer_x0020_1">
  <metadata id="CorelCorpID_0Corel-Layer"/>
  <g id="_561197856">
   <g>
    <g>
     <path class="fil0" d="M377 405l-210 0c-16,0 -29,-14 -29,-30l0 -206c0,-16 13,-29 29,-29l210 0c16,0 30,13 30,29l0 206c0,16 -14,30 -30,30zm-210 -251c-8,0 -15,7 -15,15l0 206c0,9 7,16 15,16l210 0c8,0 16,-6 16,-16l0 -206c0,-8 -8,-15 -16,-15l-210 0z"/>
    </g>
    <g>
     <path class="fil0" d="M327 356l-110 0c-16,0 -30,-14 -30,-30l0 -108c0,-16 14,-29 30,-29l110 0c16,0 30,13 30,29l0 108c0,17 -13,30 -30,30zm-110 -153c-8,0 -16,7 -16,15l0 108c0,10 8,16 16,16l110 0c9,0 16,-7 16,-16l0 -108c0,-8 -7,-15 -16,-15l-110 0z"/>
    </g>
    <g>
     <g>
      <path class="fil0" d="M244 154c-4,0 -7,-3 -7,-7l0 -100c0,-4 3,-7 7,-7 4,0 7,3 7,7l0 100c0,4 -3,7 -7,7z"/>
     </g>
     <g>
      <path class="fil0" d="M187 154c-4,0 -7,-3 -7,-7l0 -67c0,-4 3,-7 7,-7 4,0 7,3 7,7l0 67c0,4 -3,7 -7,7z"/>
     </g>
     <g>
      <path class="fil0" d="M357 154c-4,0 -7,-3 -7,-7l0 -100c0,-4 3,-7 7,-7 4,0 7,3 7,7l0 100c0,4 -3,7 -7,7z"/>
     </g>
     <g>
      <path class="fil0" d="M300 154c-4,0 -7,-3 -7,-7l0 -67c0,-4 3,-7 7,-7 4,0 7,3 7,7l0 67c0,4 -3,7 -7,7z"/>
     </g>
    </g>
    <g>
     <g>
      <path class="fil0" d="M244 504c-4,0 -7,-3 -7,-7l0 -99c0,-4 3,-7 7,-7 4,0 7,3 7,7l0 99c0,4 -3,7 -7,7z"/>
     </g>
     <g>
      <path class="fil0" d="M187 472c-4,0 -7,-3 -7,-7l0 -67c0,-4 3,-7 7,-7 4,0 7,3 7,7l0 67c0,4 -3,7 -7,7z"/>
     </g>
     <g>
      <path class="fil0" d="M357 504c-4,0 -7,-3 -7,-7l0 -99c0,-4 3,-7 7,-7 4,0 7,3 7,7l0 99c0,4 -3,7 -7,7z"/>
     </g>
     <g>
      <path class="fil0" d="M300 472c-4,0 -7,-3 -7,-7l0 -67c0,-4 3,-7 7,-7 4,0 7,3 7,7l0 67c0,4 -3,7 -7,7z"/>
     </g>
    </g>
    <g>
     <g>
      <path class="fil0" d="M499 308l-99 0c-4,0 -7,-3 -7,-7 0,-4 3,-7 7,-7l99 0c4,0 7,3 7,7 0,4 -3,7 -7,7z"/>
     </g>
     <g>
      <path class="fil0" d="M467 364l-67 0c-4,0 -7,-3 -7,-7 0,-4 3,-7 7,-7l67 0c4,0 7,3 7,7 0,4 -3,7 -7,7z"/>
     </g>
     <g>
      <path class="fil0" d="M499 195l-99 0c-4,0 -7,-3 -7,-7 0,-4 3,-7 7,-7l99 0c4,0 7,3 7,7 0,4 -3,7 -7,7z"/>
     </g>
     <g>
      <path class="fil0" d="M467 251l-67 0c-4,0 -7,-3 -7,-7 0,-4 3,-7 7,-7l67 0c4,0 7,3 7,7 0,4 -3,7 -7,7z"/>
     </g>
    </g>
    <g>
     <g>
      <path class="fil0" d="M145 308l-100 0c-4,0 -7,-3 -7,-7 0,-4 3,-7 7,-7l100 0c4,0 7,3 7,7 0,4 -3,7 -7,7z"/>
     </g>
     <g>
      <path class="fil0" d="M145 364l-67 0c-4,0 -7,-3 -7,-7 0,-4 3,-7 7,-7l67 0c4,0 7,3 7,7 0,4 -3,7 -7,7z"/>
     </g>
     <g>
      <path class="fil0" d="M145 195l-100 0c-4,0 -7,-3 -7,-7 0,-4 3,-7 7,-7l100 0c4,0 7,3 7,7 0,4 -3,7 -7,7z"/>
     </g>
     <g>
      <path class="fil0" d="M145 251l-67 0c-4,0 -7,-3 -7,-7 0,-4 3,-7 7,-7l67 0c4,0 7,3 7,7 0,4 -3,7 -7,7z"/>
     </g>
    </g>
    <g>
     <path class="fil0" d="M244 54c-15,0 -26,-11 -26,-26 0,-15 11,-26 26,-26 14,0 26,12 26,26 0,14 -12,26 -26,26zm0 -38c-7,0 -12,5 -12,12 0,7 5,12 12,12 6,0 12,-5 12,-12 0,-7 -6,-12 -12,-12z"/>
    </g>
    <g>
     <path class="fil0" d="M357 54c-15,0 -26,-11 -26,-26 0,-15 11,-26 26,-26 15,0 26,11 26,26 0,15 -11,26 -26,26zm0 -38c-7,0 -12,5 -12,12 0,7 5,12 12,12 7,0 12,-5 12,-12 0,-7 -5,-12 -12,-12z"/>
    </g>
    <g>
     <path class="fil0" d="M486 270c-15,0 -26,-11 -26,-26 0,-15 11,-26 26,-26 14,0 26,12 26,26 0,14 -12,26 -26,26zm0 -38c-7,0 -12,5 -12,12 0,7 5,12 12,12 6,0 12,-5 12,-12 0,-7 -6,-12 -12,-12z"/>
    </g>
    <g>
     <path class="fil0" d="M486 383c-15,0 -26,-11 -26,-26 0,-15 11,-26 26,-26 14,0 26,12 26,26 0,14 -12,26 -26,26zm0 -38c-7,0 -12,5 -12,12 0,7 5,12 12,12 6,0 12,-5 12,-12 0,-7 -6,-12 -12,-12z"/>
    </g>
    <g>
     <path class="fil0" d="M26 214c-14,0 -26,-12 -26,-26 0,-15 12,-27 26,-27 15,0 26,12 26,27 0,14 -12,26 -26,26zm0 -39c-6,0 -12,6 -12,13 0,6 6,12 12,12 7,0 12,-6 12,-12 0,-7 -5,-13 -12,-13z"/>
    </g>
    <g>
     <path class="fil0" d="M26 327c-14,0 -26,-12 -26,-26 0,-15 12,-27 26,-27 15,0 26,12 26,27 0,14 -12,26 -26,26zm0 -39c-6,0 -12,6 -12,13 0,6 6,12 12,12 7,0 12,-6 12,-12 0,-7 -5,-13 -12,-13z"/>
    </g>
    <g>
     <path class="fil0" d="M187 510c-14,0 -26,-12 -26,-26 0,-14 12,-26 26,-26 15,0 27,12 27,26 0,15 -12,26 -27,26zm0 -38c-6,0 -12,6 -12,12 0,7 6,12 12,12 7,0 13,-5 13,-12 0,-6 -6,-12 -13,-12z"/>
    </g>
    <g>
     <path class="fil0" d="M300 510c-14,0 -26,-12 -26,-26 0,-14 12,-26 26,-26 15,0 27,12 27,26 0,15 -12,26 -27,26zm0 -38c-6,0 -12,6 -12,12 0,7 6,12 12,12 7,0 13,-5 13,-12 0,-6 -6,-12 -13,-12z"/>
    </g>
   </g>
  </g>
 </g>
</svg>
